<?xml version="1.0" encoding="UTF-8" standalone="no"?>
<!DOCTYPE svg PUBLIC "-//W3C//DTD SVG 1.1//EN"
 "http://www.w3.org/Graphics/SVG/1.1/DTD/svg11.dtd">
<!-- Generated by graphviz version 2.40.1 (20161225.0304)
 -->
<!-- Title: twoDegreesRelationshipsDiagram Pages: 1 -->
<svg width="962pt" height="661pt"
 viewBox="0.00 0.00 962.00 660.70" xmlns="http://www.w3.org/2000/svg" xmlns:xlink="http://www.w3.org/1999/xlink">
<g id="graph0" class="graph" transform="scale(1 1) rotate(0) translate(4 656.7)">
<title>twoDegreesRelationshipsDiagram</title>
<polygon fill="#ffffff" stroke="transparent" points="-4,4 -4,-656.7 958,-656.7 958,4 -4,4"/>
<text text-anchor="middle" x="72.4936" y="-7.3" font-family="Helvetica,sans-Serif" font-size="11.00" fill="#000000">Generated by SchemaSpy</text>
<!-- csra_assessment_stage -->
<g id="node1" class="node">
<title>csra_assessment_stage</title>
<g id="a_node1"><a xlink:href="../../tables/csra_assessment_stage.html" xlink:title="csra_assessment_stage" target="_top">
<polygon fill="#ffffff" stroke="transparent" points="307,-247.7 307,-374.7 578,-374.7 578,-247.7 307,-247.7"/>
<polygon fill="#f5f5f5" stroke="transparent" points="307.5,-351.2 307.5,-374.2 578.5,-374.2 578.5,-351.2 307.5,-351.2"/>
<polygon fill="none" stroke="#000000" points="307.5,-351.2 307.5,-374.2 578.5,-374.2 578.5,-351.2 307.5,-351.2"/>
<text text-anchor="start" x="312.5" y="-359.8" font-family="Helvetica,sans-Serif" font-weight="bold" font-size="11.00" fill="#000000">csra_assessment_stage</text>
<text text-anchor="start" x="543.5437" y="-359.3" font-family="Helvetica,sans-Serif" font-size="11.00" fill="#000000">[table]</text>
<polygon fill="none" stroke="#000000" points="307.5,-329.2 307.5,-351.2 578.5,-351.2 578.5,-329.2 307.5,-329.2"/>
<image xlink:href="../../images/primaryKeys.png" width="11px" height="12px" preserveAspectRatio="xMinYMin meet" x="312.5" y="-346.2"/>
<text text-anchor="start" x="327.5" y="-336.3" font-family="Helvetica,sans-Serif" font-size="11.00" fill="#000000">id</text>
<polygon fill="#ffffff" stroke="transparent" points="307.5,-307.2 307.5,-329.2 578.5,-329.2 578.5,-307.2 307.5,-307.2"/>
<polygon fill="none" stroke="#000000" points="307.5,-307.2 307.5,-329.2 578.5,-329.2 578.5,-307.2 307.5,-307.2"/>
<image xlink:href="../../images/foreignKeys.png" width="11px" height="12px" preserveAspectRatio="xMinYMin meet" x="312.5" y="-324.2"/>
<text text-anchor="start" x="327.5" y="-314.3" font-family="Helvetica,sans-Serif" font-size="11.00" fill="#000000">csra_review_id</text>
<polygon fill="#ffffff" stroke="transparent" points="307.5,-285.2 307.5,-307.2 578.5,-307.2 578.5,-285.2 307.5,-285.2"/>
<polygon fill="none" stroke="#000000" points="307.5,-285.2 307.5,-307.2 578.5,-307.2 578.5,-285.2 307.5,-285.2"/>
<text text-anchor="start" x="327.5" y="-292.3" font-family="Helvetica,sans-Serif" font-size="11.00" fill="#000000">stage</text>
<polygon fill="none" stroke="#000000" points="307.5,-266.2 307.5,-285.2 578.5,-285.2 578.5,-266.2 307.5,-266.2"/>
<text text-anchor="start" x="310.5" y="-272.3" font-family="Helvetica,sans-Serif" font-size="11.00" fill="#000000">...</text>
<polygon fill="#ffffff" stroke="transparent" points="307.5,-247.2 307.5,-266.2 436.5,-266.2 436.5,-247.2 307.5,-247.2"/>
<polygon fill="none" stroke="#000000" points="307.5,-247.2 307.5,-266.2 436.5,-266.2 436.5,-247.2 307.5,-247.2"/>
<text text-anchor="start" x="310.5" y="-253.3" font-family="Helvetica,sans-Serif" font-size="11.00" fill="#000000">&lt; 1</text>
<polygon fill="#ffffff" stroke="transparent" points="436.5,-247.2 436.5,-266.2 502.5,-266.2 502.5,-247.2 436.5,-247.2"/>
<polygon fill="none" stroke="#000000" points="436.5,-247.2 436.5,-266.2 502.5,-266.2 502.5,-247.2 436.5,-247.2"/>
<text text-anchor="start" x="493.3862" y="-253.3" font-family="Helvetica,sans-Serif" font-size="11.00" fill="#000000"> &#160;</text>
<polygon fill="#ffffff" stroke="transparent" points="502.5,-247.2 502.5,-266.2 578.5,-266.2 578.5,-247.2 502.5,-247.2"/>
<polygon fill="none" stroke="#000000" points="502.5,-247.2 502.5,-266.2 578.5,-266.2 578.5,-247.2 502.5,-247.2"/>
<text text-anchor="start" x="559.9053" y="-253.3" font-family="Helvetica,sans-Serif" font-size="11.00" fill="#000000">4 &gt;</text>
</a>
</g>
</g>
<!-- csra_review -->
<g id="node2" class="node">
<title>csra_review</title>
<g id="a_node2"><a xlink:href="../../tables/csra_review.html" xlink:title="csra_review" target="_top">
<polygon fill="#ffffff" stroke="transparent" points="8,-38.2 8,-480.2 258,-480.2 258,-38.2 8,-38.2"/>
<polygon fill="#f5f5f5" stroke="transparent" points="10,-455.2 10,-478.2 256,-478.2 256,-455.2 10,-455.2"/>
<polygon fill="none" stroke="#000000" points="10,-455.2 10,-478.2 256,-478.2 256,-455.2 10,-455.2"/>
<text text-anchor="start" x="15" y="-463.8" font-family="Helvetica,sans-Serif" font-weight="bold" font-size="11.00" fill="#000000">csra_review</text>
<text text-anchor="start" x="221.0437" y="-463.3" font-family="Helvetica,sans-Serif" font-size="11.00" fill="#000000">[table]</text>
<polygon fill="none" stroke="#000000" points="10,-433.2 10,-455.2 162,-455.2 162,-433.2 10,-433.2"/>
<image xlink:href="../../images/primaryKeys.png" width="11px" height="12px" preserveAspectRatio="xMinYMin meet" x="15" y="-450.2"/>
<text text-anchor="start" x="30" y="-440.3" font-family="Helvetica,sans-Serif" font-size="11.00" fill="#000000">id</text>
<polygon fill="none" stroke="#000000" points="162,-433.2 162,-455.2 256,-455.2 256,-433.2 162,-433.2"/>
<text text-anchor="start" x="164.9758" y="-440.9" font-family="Helvetica,sans-Serif" font-size="11.00" fill="#000000">uuid[2147483647]</text>
<polygon fill="#ffffff" stroke="transparent" points="10,-411.2 10,-433.2 162,-433.2 162,-411.2 10,-411.2"/>
<polygon fill="none" stroke="#000000" points="10,-411.2 10,-433.2 162,-433.2 162,-411.2 10,-411.2"/>
<text text-anchor="start" x="30" y="-418.3" font-family="Helvetica,sans-Serif" font-size="11.00" fill="#000000">prisoner_number</text>
<polygon fill="none" stroke="#000000" points="162,-411.2 162,-433.2 256,-433.2 256,-411.2 162,-411.2"/>
<text text-anchor="start" x="165" y="-418.9" font-family="Helvetica,sans-Serif" font-size="11.00" fill="#000000">varchar[10]</text>
<polygon fill="none" stroke="#000000" points="10,-389.2 10,-411.2 162,-411.2 162,-389.2 10,-389.2"/>
<text text-anchor="start" x="30" y="-396.3" font-family="Helvetica,sans-Serif" font-size="11.00" fill="#000000">prison_id</text>
<polygon fill="none" stroke="#000000" points="162,-389.2 162,-411.2 256,-411.2 256,-389.2 162,-389.2"/>
<text text-anchor="start" x="165" y="-396.9" font-family="Helvetica,sans-Serif" font-size="11.00" fill="#000000">varchar[6]</text>
<polygon fill="#ffffff" stroke="transparent" points="10,-367.2 10,-389.2 162,-389.2 162,-367.2 10,-367.2"/>
<polygon fill="none" stroke="#000000" points="10,-367.2 10,-389.2 162,-389.2 162,-367.2 10,-367.2"/>
<text text-anchor="start" x="30" y="-374.3" font-family="Helvetica,sans-Serif" font-size="11.00" fill="#000000">assessment_date</text>
<polygon fill="none" stroke="#000000" points="162,-367.2 162,-389.2 256,-389.2 256,-367.2 162,-367.2"/>
<text text-anchor="start" x="165" y="-374.9" font-family="Helvetica,sans-Serif" font-size="11.00" fill="#000000">date[13]</text>
<polygon fill="none" stroke="#000000" points="10,-345.2 10,-367.2 162,-367.2 162,-345.2 10,-345.2"/>
<text text-anchor="start" x="30" y="-352.3" font-family="Helvetica,sans-Serif" font-size="11.00" fill="#000000">type</text>
<polygon fill="none" stroke="#000000" points="162,-345.2 162,-367.2 256,-367.2 256,-345.2 162,-345.2"/>
<text text-anchor="start" x="165" y="-352.9" font-family="Helvetica,sans-Serif" font-size="11.00" fill="#000000">varchar[20]</text>
<polygon fill="none" stroke="#000000" points="10,-323.2 10,-345.2 162,-345.2 162,-323.2 10,-323.2"/>
<text text-anchor="start" x="30" y="-330.3" font-family="Helvetica,sans-Serif" font-size="11.00" fill="#000000">interim_result</text>
<polygon fill="none" stroke="#000000" points="162,-323.2 162,-345.2 256,-345.2 256,-323.2 162,-323.2"/>
<text text-anchor="start" x="165" y="-330.9" font-family="Helvetica,sans-Serif" font-size="11.00" fill="#000000">varchar[20]</text>
<polygon fill="none" stroke="#000000" points="10,-301.2 10,-323.2 162,-323.2 162,-301.2 10,-301.2"/>
<text text-anchor="start" x="30" y="-308.3" font-family="Helvetica,sans-Serif" font-size="11.00" fill="#000000">interim_result_date</text>
<polygon fill="none" stroke="#000000" points="162,-301.2 162,-323.2 256,-323.2 256,-301.2 162,-301.2"/>
<text text-anchor="start" x="165" y="-308.9" font-family="Helvetica,sans-Serif" font-size="11.00" fill="#000000">date[13]</text>
<polygon fill="none" stroke="#000000" points="10,-279.2 10,-301.2 162,-301.2 162,-279.2 10,-279.2"/>
<text text-anchor="start" x="30" y="-286.3" font-family="Helvetica,sans-Serif" font-size="11.00" fill="#000000">final_result</text>
<polygon fill="none" stroke="#000000" points="162,-279.2 162,-301.2 256,-301.2 256,-279.2 162,-279.2"/>
<text text-anchor="start" x="165" y="-286.9" font-family="Helvetica,sans-Serif" font-size="11.00" fill="#000000">varchar[20]</text>
<polygon fill="none" stroke="#000000" points="10,-257.2 10,-279.2 162,-279.2 162,-257.2 10,-257.2"/>
<text text-anchor="start" x="30" y="-264.3" font-family="Helvetica,sans-Serif" font-size="11.00" fill="#000000">final_result_date</text>
<polygon fill="none" stroke="#000000" points="162,-257.2 162,-279.2 256,-279.2 256,-257.2 162,-257.2"/>
<text text-anchor="start" x="165" y="-264.9" font-family="Helvetica,sans-Serif" font-size="11.00" fill="#000000">date[13]</text>
<polygon fill="none" stroke="#000000" points="10,-235.2 10,-257.2 162,-257.2 162,-235.2 10,-235.2"/>
<text text-anchor="start" x="30" y="-242.3" font-family="Helvetica,sans-Serif" font-size="11.00" fill="#000000">created_at</text>
<polygon fill="none" stroke="#000000" points="162,-235.2 162,-257.2 256,-257.2 256,-235.2 162,-235.2"/>
<text text-anchor="start" x="165" y="-242.9" font-family="Helvetica,sans-Serif" font-size="11.00" fill="#000000">timestamp[29,6]</text>
<polygon fill="none" stroke="#000000" points="10,-213.2 10,-235.2 162,-235.2 162,-213.2 10,-213.2"/>
<text text-anchor="start" x="30" y="-220.3" font-family="Helvetica,sans-Serif" font-size="11.00" fill="#000000">created_by</text>
<polygon fill="none" stroke="#000000" points="162,-213.2 162,-235.2 256,-235.2 256,-213.2 162,-213.2"/>
<text text-anchor="start" x="165" y="-220.9" font-family="Helvetica,sans-Serif" font-size="11.00" fill="#000000">varchar[40]</text>
<polygon fill="none" stroke="#000000" points="10,-191.2 10,-213.2 162,-213.2 162,-191.2 10,-191.2"/>
<text text-anchor="start" x="30" y="-198.3" font-family="Helvetica,sans-Serif" font-size="11.00" fill="#000000">last_modified_at</text>
<polygon fill="none" stroke="#000000" points="162,-191.2 162,-213.2 256,-213.2 256,-191.2 162,-191.2"/>
<text text-anchor="start" x="165" y="-198.9" font-family="Helvetica,sans-Serif" font-size="11.00" fill="#000000">timestamp[29,6]</text>
<polygon fill="none" stroke="#000000" points="10,-169.2 10,-191.2 162,-191.2 162,-169.2 10,-169.2"/>
<text text-anchor="start" x="30" y="-176.3" font-family="Helvetica,sans-Serif" font-size="11.00" fill="#000000">last_modified_by</text>
<polygon fill="none" stroke="#000000" points="162,-169.2 162,-191.2 256,-191.2 256,-169.2 162,-169.2"/>
<text text-anchor="start" x="165" y="-176.9" font-family="Helvetica,sans-Serif" font-size="11.00" fill="#000000">varchar[40]</text>
<polygon fill="none" stroke="#000000" points="10,-147.2 10,-169.2 162,-169.2 162,-147.2 10,-147.2"/>
<text text-anchor="start" x="30" y="-154.3" font-family="Helvetica,sans-Serif" font-size="11.00" fill="#000000">status</text>
<polygon fill="none" stroke="#000000" points="162,-147.2 162,-169.2 256,-169.2 256,-147.2 162,-147.2"/>
<text text-anchor="start" x="165" y="-154.9" font-family="Helvetica,sans-Serif" font-size="11.00" fill="#000000">varchar[20]</text>
<polygon fill="none" stroke="#000000" points="10,-125.2 10,-147.2 162,-147.2 162,-125.2 10,-125.2"/>
<text text-anchor="start" x="30" y="-132.3" font-family="Helvetica,sans-Serif" font-size="11.00" fill="#000000">closure_reason</text>
<polygon fill="none" stroke="#000000" points="162,-125.2 162,-147.2 256,-147.2 256,-125.2 162,-125.2"/>
<text text-anchor="start" x="165" y="-132.9" font-family="Helvetica,sans-Serif" font-size="11.00" fill="#000000">varchar[40]</text>
<polygon fill="none" stroke="#000000" points="10,-103.2 10,-125.2 162,-125.2 162,-103.2 10,-103.2"/>
<text text-anchor="start" x="30" y="-110.3" font-family="Helvetica,sans-Serif" font-size="11.00" fill="#000000">closed_at</text>
<polygon fill="none" stroke="#000000" points="162,-103.2 162,-125.2 256,-125.2 256,-103.2 162,-103.2"/>
<text text-anchor="start" x="165" y="-110.9" font-family="Helvetica,sans-Serif" font-size="11.00" fill="#000000">timestamp[29,6]</text>
<polygon fill="none" stroke="#000000" points="10,-81.2 10,-103.2 162,-103.2 162,-81.2 10,-81.2"/>
<text text-anchor="start" x="30" y="-88.3" font-family="Helvetica,sans-Serif" font-size="11.00" fill="#000000">closed_by</text>
<polygon fill="none" stroke="#000000" points="162,-81.2 162,-103.2 256,-103.2 256,-81.2 162,-81.2"/>
<text text-anchor="start" x="165" y="-88.9" font-family="Helvetica,sans-Serif" font-size="11.00" fill="#000000">varchar[40]</text>
<polygon fill="none" stroke="#000000" points="10,-59.2 10,-81.2 162,-81.2 162,-59.2 10,-59.2"/>
<text text-anchor="start" x="30" y="-66.3" font-family="Helvetica,sans-Serif" font-size="11.00" fill="#000000">superseded_at</text>
<polygon fill="none" stroke="#000000" points="162,-59.2 162,-81.2 256,-81.2 256,-59.2 162,-59.2"/>
<text text-anchor="start" x="165" y="-66.9" font-family="Helvetica,sans-Serif" font-size="11.00" fill="#000000">timestamp[29,6]</text>
<polygon fill="#ffffff" stroke="transparent" points="10,-40.2 10,-59.2 90,-59.2 90,-40.2 10,-40.2"/>
<polygon fill="none" stroke="#000000" points="10,-40.2 10,-59.2 90,-59.2 90,-40.2 10,-40.2"/>
<text text-anchor="start" x="13" y="-46.3" font-family="Helvetica,sans-Serif" font-size="11.00" fill="#000000">&lt; 0</text>
<polygon fill="#ffffff" stroke="transparent" points="90,-40.2 90,-59.2 162,-59.2 162,-40.2 90,-40.2"/>
<polygon fill="none" stroke="#000000" points="90,-40.2 90,-59.2 162,-59.2 162,-40.2 90,-40.2"/>
<text text-anchor="start" x="152.8862" y="-46.3" font-family="Helvetica,sans-Serif" font-size="11.00" fill="#000000"> &#160;</text>
<polygon fill="#ffffff" stroke="transparent" points="162,-40.2 162,-59.2 256,-59.2 256,-40.2 162,-40.2"/>
<polygon fill="none" stroke="#000000" points="162,-40.2 162,-59.2 256,-59.2 256,-40.2 162,-40.2"/>
<text text-anchor="start" x="237.4053" y="-46.3" font-family="Helvetica,sans-Serif" font-size="11.00" fill="#000000">3 &gt;</text>
<polygon fill="none" stroke="#000000" stroke-width="2" points="9,-39.2 9,-479.2 257,-479.2 257,-39.2 9,-39.2"/>
</a>
</g>
</g>
<!-- csra_assessment_stage&#45;&gt;csra_review -->
<g id="edge1" class="edge">
<title>csra_assessment_stage:w&#45;&gt;csra_review:e</title>
<path fill="none" stroke="#000000" d="M293.2532,-321.5702C259.3363,-341.6077 310.5892,-444.2 256,-444.2"/>
<polygon fill="#000000" stroke="#000000" points="299.7149,-320.0417 308.3288,-321.7033 303.6074,-319.1208 307.5,-318.2 307.5,-318.2 307.5,-318.2 303.6074,-319.1208 306.6712,-314.6967 299.7149,-320.0417 299.7149,-320.0417"/>
<ellipse fill="none" stroke="#000000" cx="296.6008" cy="-320.7783" rx="3.2" ry="3.2"/>
</g>
<!-- csra_assessment_stage_evidence_source -->
<g id="node3" class="node">
<title>csra_assessment_stage_evidence_source</title>
<g id="a_node3"><a xlink:href="../../tables/csra_assessment_stage_evidence_source.html" xlink:title="csra_assessment_stage_evidence_source" target="_top">
<polygon fill="#ffffff" stroke="transparent" points="629.5,-435.7 629.5,-496.7 943.5,-496.7 943.5,-435.7 629.5,-435.7"/>
<polygon fill="#f5f5f5" stroke="transparent" points="629.5,-473.2 629.5,-496.2 943.5,-496.2 943.5,-473.2 629.5,-473.2"/>
<polygon fill="none" stroke="#000000" points="629.5,-473.2 629.5,-496.2 943.5,-496.2 943.5,-473.2 629.5,-473.2"/>
<text text-anchor="start" x="634.5" y="-481.8" font-family="Helvetica,sans-Serif" font-weight="bold" font-size="11.00" fill="#000000">csra_assessment_stage_evidence_source</text>
<text text-anchor="start" x="909.0219" y="-481.3" font-family="Helvetica,sans-Serif" font-size="11.00" fill="#000000">[table]</text>
<polygon fill="none" stroke="#000000" points="629.5,-454.2 629.5,-473.2 943.5,-473.2 943.5,-454.2 629.5,-454.2"/>
<text text-anchor="start" x="632.5" y="-460.3" font-family="Helvetica,sans-Serif" font-size="11.00" fill="#000000">...</text>
<polygon fill="#ffffff" stroke="transparent" points="629.5,-435.2 629.5,-454.2 784.5,-454.2 784.5,-435.2 629.5,-435.2"/>
<polygon fill="none" stroke="#000000" points="629.5,-435.2 629.5,-454.2 784.5,-454.2 784.5,-435.2 629.5,-435.2"/>
<text text-anchor="start" x="632.5" y="-441.3" font-family="Helvetica,sans-Serif" font-size="11.00" fill="#000000">&lt; 1</text>
<polygon fill="#ffffff" stroke="transparent" points="784.5,-435.2 784.5,-454.2 863.5,-454.2 863.5,-435.2 784.5,-435.2"/>
<polygon fill="none" stroke="#000000" points="784.5,-435.2 784.5,-454.2 863.5,-454.2 863.5,-435.2 784.5,-435.2"/>
<text text-anchor="start" x="854.3862" y="-441.3" font-family="Helvetica,sans-Serif" font-size="11.00" fill="#000000"> &#160;</text>
<polygon fill="#ffffff" stroke="transparent" points="863.5,-435.2 863.5,-454.2 943.5,-454.2 943.5,-435.2 863.5,-435.2"/>
<polygon fill="none" stroke="#000000" points="863.5,-435.2 863.5,-454.2 943.5,-454.2 943.5,-435.2 863.5,-435.2"/>
<text text-anchor="start" x="934.3862" y="-441.3" font-family="Helvetica,sans-Serif" font-size="11.00" fill="#000000"> &#160;</text>
</a>
</g>
</g>
<!-- csra_assessment_stage_evidence_source&#45;&gt;csra_assessment_stage -->
<g id="edge2" class="edge">
<title>csra_assessment_stage_evidence_source:w&#45;&gt;csra_assessment_stage:e</title>
<path fill="none" stroke="#000000" d="M615.1193,-459.6515C582.6975,-439.4844 631.6692,-340.2 578.5,-340.2"/>
<polygon fill="#000000" stroke="#000000" points="621.733,-461.2834 628.6375,-466.6952 625.6165,-462.2417 629.5,-463.2 629.5,-463.2 629.5,-463.2 625.6165,-462.2417 630.3625,-459.7048 621.733,-461.2834 621.733,-461.2834"/>
<ellipse fill="none" stroke="#000000" cx="618.6261" cy="-460.5168" rx="3.2" ry="3.2"/>
</g>
<!-- csra_assessment_stage_offence_evidence -->
<g id="node4" class="node">
<title>csra_assessment_stage_offence_evidence</title>
<g id="a_node4"><a xlink:href="../../tables/csra_assessment_stage_offence_evidence.html" xlink:title="csra_assessment_stage_offence_evidence" target="_top">
<polygon fill="#ffffff" stroke="transparent" points="627,-353.7 627,-414.7 946,-414.7 946,-353.7 627,-353.7"/>
<polygon fill="#f5f5f5" stroke="transparent" points="627.5,-391.2 627.5,-414.2 946.5,-414.2 946.5,-391.2 627.5,-391.2"/>
<polygon fill="none" stroke="#000000" points="627.5,-391.2 627.5,-414.2 946.5,-414.2 946.5,-391.2 627.5,-391.2"/>
<text text-anchor="start" x="632.5" y="-399.8" font-family="Helvetica,sans-Serif" font-weight="bold" font-size="11.00" fill="#000000">csra_assessment_stage_offence_evidence</text>
<text text-anchor="start" x="912.0219" y="-399.3" font-family="Helvetica,sans-Serif" font-size="11.00" fill="#000000">[table]</text>
<polygon fill="none" stroke="#000000" points="627.5,-372.2 627.5,-391.2 946.5,-391.2 946.5,-372.2 627.5,-372.2"/>
<text text-anchor="start" x="630.5" y="-378.3" font-family="Helvetica,sans-Serif" font-size="11.00" fill="#000000">...</text>
<polygon fill="#ffffff" stroke="transparent" points="627.5,-353.2 627.5,-372.2 785.5,-372.2 785.5,-353.2 627.5,-353.2"/>
<polygon fill="none" stroke="#000000" points="627.5,-353.2 627.5,-372.2 785.5,-372.2 785.5,-353.2 627.5,-353.2"/>
<text text-anchor="start" x="630.5" y="-359.3" font-family="Helvetica,sans-Serif" font-size="11.00" fill="#000000">&lt; 1</text>
<polygon fill="#ffffff" stroke="transparent" points="785.5,-353.2 785.5,-372.2 865.5,-372.2 865.5,-353.2 785.5,-353.2"/>
<polygon fill="none" stroke="#000000" points="785.5,-353.2 785.5,-372.2 865.5,-372.2 865.5,-353.2 785.5,-353.2"/>
<text text-anchor="start" x="856.3862" y="-359.3" font-family="Helvetica,sans-Serif" font-size="11.00" fill="#000000"> &#160;</text>
<polygon fill="#ffffff" stroke="transparent" points="865.5,-353.2 865.5,-372.2 946.5,-372.2 946.5,-353.2 865.5,-353.2"/>
<polygon fill="none" stroke="#000000" points="865.5,-353.2 865.5,-372.2 946.5,-372.2 946.5,-353.2 865.5,-353.2"/>
<text text-anchor="start" x="937.3862" y="-359.3" font-family="Helvetica,sans-Serif" font-size="11.00" fill="#000000"> &#160;</text>
</a>
</g>
</g>
<!-- csra_assessment_stage_offence_evidence&#45;&gt;csra_assessment_stage -->
<g id="edge3" class="edge">
<title>csra_assessment_stage_offence_evidence:w&#45;&gt;csra_assessment_stage:e</title>
<path fill="none" stroke="#000000" d="M613.6819,-376.4968C600.7811,-365.7274 600.9061,-340.2 578.5,-340.2"/>
<polygon fill="#000000" stroke="#000000" points="619.9267,-378.6222 626.34,-384.608 623.7133,-379.9111 627.5,-381.2 627.5,-381.2 627.5,-381.2 623.7133,-379.9111 628.66,-377.792 619.9267,-378.6222 619.9267,-378.6222"/>
<ellipse fill="none" stroke="#000000" cx="616.8973" cy="-377.5911" rx="3.2" ry="3.2"/>
</g>
<!-- csra_assessment_stage_risk_to -->
<g id="node5" class="node">
<title>csra_assessment_stage_risk_to</title>
<g id="a_node5"><a xlink:href="../../tables/csra_assessment_stage_risk_to.html" xlink:title="csra_assessment_stage_risk_to" target="_top">
<polygon fill="#ffffff" stroke="transparent" points="663,-271.7 663,-332.7 910,-332.7 910,-271.7 663,-271.7"/>
<polygon fill="#f5f5f5" stroke="transparent" points="663.5,-309.2 663.5,-332.2 910.5,-332.2 910.5,-309.2 663.5,-309.2"/>
<polygon fill="none" stroke="#000000" points="663.5,-309.2 663.5,-332.2 910.5,-332.2 910.5,-309.2 663.5,-309.2"/>
<text text-anchor="start" x="668.5" y="-317.8" font-family="Helvetica,sans-Serif" font-weight="bold" font-size="11.00" fill="#000000">csra_assessment_stage_risk_to</text>
<text text-anchor="start" x="876.0219" y="-317.3" font-family="Helvetica,sans-Serif" font-size="11.00" fill="#000000">[table]</text>
<polygon fill="none" stroke="#000000" points="663.5,-290.2 663.5,-309.2 910.5,-309.2 910.5,-290.2 663.5,-290.2"/>
<text text-anchor="start" x="666.5" y="-296.3" font-family="Helvetica,sans-Serif" font-size="11.00" fill="#000000">...</text>
<polygon fill="#ffffff" stroke="transparent" points="663.5,-271.2 663.5,-290.2 785.5,-290.2 785.5,-271.2 663.5,-271.2"/>
<polygon fill="none" stroke="#000000" points="663.5,-271.2 663.5,-290.2 785.5,-290.2 785.5,-271.2 663.5,-271.2"/>
<text text-anchor="start" x="666.5" y="-277.3" font-family="Helvetica,sans-Serif" font-size="11.00" fill="#000000">&lt; 1</text>
<polygon fill="#ffffff" stroke="transparent" points="785.5,-271.2 785.5,-290.2 847.5,-290.2 847.5,-271.2 785.5,-271.2"/>
<polygon fill="none" stroke="#000000" points="785.5,-271.2 785.5,-290.2 847.5,-290.2 847.5,-271.2 785.5,-271.2"/>
<text text-anchor="start" x="838.3862" y="-277.3" font-family="Helvetica,sans-Serif" font-size="11.00" fill="#000000"> &#160;</text>
<polygon fill="#ffffff" stroke="transparent" points="847.5,-271.2 847.5,-290.2 910.5,-290.2 910.5,-271.2 847.5,-271.2"/>
<polygon fill="none" stroke="#000000" points="847.5,-271.2 847.5,-290.2 910.5,-290.2 910.5,-271.2 847.5,-271.2"/>
<text text-anchor="start" x="901.3862" y="-277.3" font-family="Helvetica,sans-Serif" font-size="11.00" fill="#000000"> &#160;</text>
</a>
</g>
</g>
<!-- csra_assessment_stage_risk_to&#45;&gt;csra_assessment_stage -->
<g id="edge4" class="edge">
<title>csra_assessment_stage_risk_to:w&#45;&gt;csra_assessment_stage:e</title>
<path fill="none" stroke="#000000" d="M649.1403,-301.0682C620.5914,-309.089 615.0362,-340.2 578.5,-340.2"/>
<polygon fill="#000000" stroke="#000000" points="655.5669,-300.2322 663.9645,-302.7699 659.5334,-299.7161 663.5,-299.2 663.5,-299.2 663.5,-299.2 659.5334,-299.7161 663.0355,-295.6301 655.5669,-300.2322 655.5669,-300.2322"/>
<ellipse fill="none" stroke="#000000" cx="652.3936" cy="-300.645" rx="3.2" ry="3.2"/>
</g>
<!-- csra_assessment_stage_vulnerability -->
<g id="node6" class="node">
<title>csra_assessment_stage_vulnerability</title>
<g id="a_node6"><a xlink:href="../../tables/csra_assessment_stage_vulnerability.html" xlink:title="csra_assessment_stage_vulnerability" target="_top">
<polygon fill="#ffffff" stroke="transparent" points="642.5,-189.7 642.5,-250.7 930.5,-250.7 930.5,-189.7 642.5,-189.7"/>
<polygon fill="#f5f5f5" stroke="transparent" points="642.5,-227.2 642.5,-250.2 930.5,-250.2 930.5,-227.2 642.5,-227.2"/>
<polygon fill="none" stroke="#000000" points="642.5,-227.2 642.5,-250.2 930.5,-250.2 930.5,-227.2 642.5,-227.2"/>
<text text-anchor="start" x="647.5" y="-235.8" font-family="Helvetica,sans-Serif" font-weight="bold" font-size="11.00" fill="#000000">csra_assessment_stage_vulnerability</text>
<text text-anchor="start" x="896.0219" y="-235.3" font-family="Helvetica,sans-Serif" font-size="11.00" fill="#000000">[table]</text>
<polygon fill="none" stroke="#000000" points="642.5,-208.2 642.5,-227.2 930.5,-227.2 930.5,-208.2 642.5,-208.2"/>
<text text-anchor="start" x="645.5" y="-214.3" font-family="Helvetica,sans-Serif" font-size="11.00" fill="#000000">...</text>
<polygon fill="#ffffff" stroke="transparent" points="642.5,-189.2 642.5,-208.2 784.5,-208.2 784.5,-189.2 642.5,-189.2"/>
<polygon fill="none" stroke="#000000" points="642.5,-189.2 642.5,-208.2 784.5,-208.2 784.5,-189.2 642.5,-189.2"/>
<text text-anchor="start" x="645.5" y="-195.3" font-family="Helvetica,sans-Serif" font-size="11.00" fill="#000000">&lt; 1</text>
<polygon fill="#ffffff" stroke="transparent" points="784.5,-189.2 784.5,-208.2 857.5,-208.2 857.5,-189.2 784.5,-189.2"/>
<polygon fill="none" stroke="#000000" points="784.5,-189.2 784.5,-208.2 857.5,-208.2 857.5,-189.2 784.5,-189.2"/>
<text text-anchor="start" x="848.3862" y="-195.3" font-family="Helvetica,sans-Serif" font-size="11.00" fill="#000000"> &#160;</text>
<polygon fill="#ffffff" stroke="transparent" points="857.5,-189.2 857.5,-208.2 930.5,-208.2 930.5,-189.2 857.5,-189.2"/>
<polygon fill="none" stroke="#000000" points="857.5,-189.2 857.5,-208.2 930.5,-208.2 930.5,-189.2 857.5,-189.2"/>
<text text-anchor="start" x="921.3862" y="-195.3" font-family="Helvetica,sans-Serif" font-size="11.00" fill="#000000"> &#160;</text>
</a>
</g>
</g>
<!-- csra_assessment_stage_vulnerability&#45;&gt;csra_assessment_stage -->
<g id="edge5" class="edge">
<title>csra_assessment_stage_vulnerability:w&#45;&gt;csra_assessment_stage:e</title>
<path fill="none" stroke="#000000" d="M628.1561,-220.2405C590.9226,-239.1814 634.3468,-340.2 578.5,-340.2"/>
<polygon fill="#000000" stroke="#000000" points="634.6739,-218.8589 643.2465,-220.7218 638.5869,-218.0295 642.5,-217.2 642.5,-217.2 642.5,-217.2 638.5869,-218.0295 641.7535,-213.6782 634.6739,-218.8589 634.6739,-218.8589"/>
<ellipse fill="none" stroke="#000000" cx="631.5434" cy="-219.5225" rx="3.2" ry="3.2"/>
</g>
<!-- csra_next_review -->
<g id="node7" class="node">
<title>csra_next_review</title>
<g id="a_node7"><a xlink:href="../../tables/csra_next_review.html" xlink:title="csra_next_review" target="_top">
<polygon fill="#ffffff" stroke="transparent" points="365.5,-521.7 365.5,-648.7 519.5,-648.7 519.5,-521.7 365.5,-521.7"/>
<polygon fill="#f5f5f5" stroke="transparent" points="365.5,-625.2 365.5,-648.2 519.5,-648.2 519.5,-625.2 365.5,-625.2"/>
<polygon fill="none" stroke="#000000" points="365.5,-625.2 365.5,-648.2 519.5,-648.2 519.5,-625.2 365.5,-625.2"/>
<text text-anchor="start" x="370.5" y="-633.8" font-family="Helvetica,sans-Serif" font-weight="bold" font-size="11.00" fill="#000000">csra_next_review</text>
<text text-anchor="start" x="485.0219" y="-633.3" font-family="Helvetica,sans-Serif" font-size="11.00" fill="#000000">[table]</text>
<polygon fill="none" stroke="#000000" points="365.5,-603.2 365.5,-625.2 519.5,-625.2 519.5,-603.2 365.5,-603.2"/>
<image xlink:href="../../images/primaryKeys.png" width="11px" height="12px" preserveAspectRatio="xMinYMin meet" x="370.5" y="-620.2"/>
<text text-anchor="start" x="393.5" y="-610.3" font-family="Helvetica,sans-Serif" font-size="11.00" fill="#000000">id</text>
<polygon fill="#ffffff" stroke="transparent" points="365.5,-581.2 365.5,-603.2 519.5,-603.2 519.5,-581.2 365.5,-581.2"/>
<polygon fill="none" stroke="#000000" points="365.5,-581.2 365.5,-603.2 519.5,-603.2 519.5,-581.2 365.5,-581.2"/>
<text text-anchor="start" x="393.5" y="-588.3" font-family="Helvetica,sans-Serif" font-size="11.00" fill="#000000">prisoner_number</text>
<polygon fill="none" stroke="#000000" points="365.5,-559.2 365.5,-581.2 519.5,-581.2 519.5,-559.2 365.5,-559.2"/>
<image xlink:href="../../images/foreignKeys.png" width="11px" height="12px" preserveAspectRatio="xMinYMin meet" x="370.5" y="-576.2"/>
<text text-anchor="start" x="393.5" y="-566.3" font-family="Helvetica,sans-Serif" font-size="11.00" fill="#000000">set_by_review_id</text>
<polygon fill="none" stroke="#000000" points="365.5,-540.2 365.5,-559.2 519.5,-559.2 519.5,-540.2 365.5,-540.2"/>
<text text-anchor="start" x="368.5" y="-546.3" font-family="Helvetica,sans-Serif" font-size="11.00" fill="#000000">...</text>
<polygon fill="#ffffff" stroke="transparent" points="365.5,-521.2 365.5,-540.2 440.5,-540.2 440.5,-521.2 365.5,-521.2"/>
<polygon fill="none" stroke="#000000" points="365.5,-521.2 365.5,-540.2 440.5,-540.2 440.5,-521.2 365.5,-521.2"/>
<text text-anchor="start" x="368.5" y="-527.3" font-family="Helvetica,sans-Serif" font-size="11.00" fill="#000000">&lt; 1</text>
<polygon fill="#ffffff" stroke="transparent" points="440.5,-521.2 440.5,-540.2 479.5,-540.2 479.5,-521.2 440.5,-521.2"/>
<polygon fill="none" stroke="#000000" points="440.5,-521.2 440.5,-540.2 479.5,-540.2 479.5,-521.2 440.5,-521.2"/>
<text text-anchor="start" x="470.3862" y="-527.3" font-family="Helvetica,sans-Serif" font-size="11.00" fill="#000000"> &#160;</text>
<polygon fill="#ffffff" stroke="transparent" points="479.5,-521.2 479.5,-540.2 519.5,-540.2 519.5,-521.2 479.5,-521.2"/>
<polygon fill="none" stroke="#000000" points="479.5,-521.2 479.5,-540.2 519.5,-540.2 519.5,-521.2 479.5,-521.2"/>
<text text-anchor="start" x="510.3862" y="-527.3" font-family="Helvetica,sans-Serif" font-size="11.00" fill="#000000"> &#160;</text>
</a>
</g>
</g>
<!-- csra_next_review&#45;&gt;csra_review -->
<g id="edge6" class="edge">
<title>csra_next_review:w&#45;&gt;csra_review:e</title>
<path fill="none" stroke="#000000" d="M350.9241,-568.5584C325.1411,-562.0287 321.0772,-536.998 299,-511.2 275.9944,-484.3171 291.3829,-444.2 256,-444.2"/>
<polygon fill="#000000" stroke="#000000" points="357.5503,-569.3046 365.0971,-573.7774 361.5251,-569.7523 365.5,-570.2 365.5,-570.2 365.5,-570.2 361.5251,-569.7523 365.9029,-566.6226 357.5503,-569.3046 357.5503,-569.3046"/>
<ellipse fill="none" stroke="#000000" cx="354.3704" cy="-568.9465" rx="3.2" ry="3.2"/>
</g>
<!-- csra_review_nomis -->
<g id="node8" class="node">
<title>csra_review_nomis</title>
<g id="a_node8"><a xlink:href="../../tables/csra_review_nomis.html" xlink:title="csra_review_nomis" target="_top">
<polygon fill="#ffffff" stroke="transparent" points="336,-395.7 336,-500.7 549,-500.7 549,-395.7 336,-395.7"/>
<polygon fill="#f5f5f5" stroke="transparent" points="336.5,-477.2 336.5,-500.2 549.5,-500.2 549.5,-477.2 336.5,-477.2"/>
<polygon fill="none" stroke="#000000" points="336.5,-477.2 336.5,-500.2 549.5,-500.2 549.5,-477.2 336.5,-477.2"/>
<text text-anchor="start" x="341.5" y="-485.8" font-family="Helvetica,sans-Serif" font-weight="bold" font-size="11.00" fill="#000000">csra_review_nomis</text>
<text text-anchor="start" x="514.5437" y="-485.3" font-family="Helvetica,sans-Serif" font-size="11.00" fill="#000000">[table]</text>
<polygon fill="none" stroke="#000000" points="336.5,-455.2 336.5,-477.2 549.5,-477.2 549.5,-455.2 336.5,-455.2"/>
<image xlink:href="../../images/primaryKeys.png" width="11px" height="12px" preserveAspectRatio="xMinYMin meet" x="341.5" y="-472.2"/>
<text text-anchor="start" x="356.5" y="-462.3" font-family="Helvetica,sans-Serif" font-size="11.00" fill="#000000">id</text>
<polygon fill="#ffffff" stroke="transparent" points="336.5,-433.2 336.5,-455.2 549.5,-455.2 549.5,-433.2 336.5,-433.2"/>
<polygon fill="none" stroke="#000000" points="336.5,-433.2 336.5,-455.2 549.5,-455.2 549.5,-433.2 336.5,-433.2"/>
<image xlink:href="../../images/foreignKeys.png" width="11px" height="12px" preserveAspectRatio="xMinYMin meet" x="341.5" y="-450.2"/>
<text text-anchor="start" x="356.5" y="-440.3" font-family="Helvetica,sans-Serif" font-size="11.00" fill="#000000">csra_review_id</text>
<polygon fill="none" stroke="#000000" points="336.5,-414.2 336.5,-433.2 549.5,-433.2 549.5,-414.2 336.5,-414.2"/>
<text text-anchor="start" x="339.5" y="-420.3" font-family="Helvetica,sans-Serif" font-size="11.00" fill="#000000">...</text>
<polygon fill="#ffffff" stroke="transparent" points="336.5,-395.2 336.5,-414.2 441.5,-414.2 441.5,-395.2 336.5,-395.2"/>
<polygon fill="none" stroke="#000000" points="336.5,-395.2 336.5,-414.2 441.5,-414.2 441.5,-395.2 336.5,-395.2"/>
<text text-anchor="start" x="339.5" y="-401.3" font-family="Helvetica,sans-Serif" font-size="11.00" fill="#000000">&lt; 1</text>
<polygon fill="#ffffff" stroke="transparent" points="441.5,-395.2 441.5,-414.2 495.5,-414.2 495.5,-395.2 441.5,-395.2"/>
<polygon fill="none" stroke="#000000" points="441.5,-395.2 441.5,-414.2 495.5,-414.2 495.5,-395.2 441.5,-395.2"/>
<text text-anchor="start" x="486.3862" y="-401.3" font-family="Helvetica,sans-Serif" font-size="11.00" fill="#000000"> &#160;</text>
<polygon fill="#ffffff" stroke="transparent" points="495.5,-395.2 495.5,-414.2 549.5,-414.2 549.5,-395.2 495.5,-395.2"/>
<polygon fill="none" stroke="#000000" points="495.5,-395.2 495.5,-414.2 549.5,-414.2 549.5,-395.2 495.5,-395.2"/>
<text text-anchor="start" x="540.3862" y="-401.3" font-family="Helvetica,sans-Serif" font-size="11.00" fill="#000000"> &#160;</text>
</a>
</g>
</g>
<!-- csra_review_nomis&#45;&gt;csra_review -->
<g id="edge7" class="edge">
<title>csra_review_nomis:w&#45;&gt;csra_review:e</title>
<path fill="none" stroke="#000000" d="M326.0122,-444.2C298.537,-444.2 288.0043,-444.2 256,-444.2"/>
<polygon fill="#000000" stroke="#000000" points="335.7,-440.2 335.7,-448.2 334.1,-448.2 334.1,-440.2 335.7,-440.2"/>
<polyline fill="none" stroke="#000000" points="336.5,-444.2 332.5,-444.2 "/>
<ellipse fill="none" stroke="#000000" cx="329.3" cy="-444.2001" rx="3.2" ry="3.2"/>
</g>
</g>
</svg>
